<mxfile host="app.diagrams.net" modified="2024-05-13T00:08:53.004Z" agent="Mozilla/5.0 (Windows NT 10.0; Win64; x64) AppleWebKit/537.36 (KHTML, like Gecko) Chrome/124.0.0.0 Safari/537.36 Edg/124.0.0.0" version="24.4.0" etag="9TYb8ElHT8UlsOtF5M4y" type="github">
  <diagram name="PÃ¡gina-1" id="FhAlya1HoGeg7qJE3iY5">
    <mxGraphModel>
      <root>
        <mxCell id="0" />
        <mxCell id="1" parent="0" />
      </root>
    </mxGraphModel>
  </diagram>
</mxfile>
